<svg xmlns="http://www.w3.org/2000/svg" viewBox="0 8 640 452" role="img" aria-labelledby="t">
<title id="t">A developer coding at a laptop, with code and tech icons floating around</title>
<style>
  .float { transform-box: fill-box; animation: bob 6s ease-in-out infinite; }
  .f2 { animation-delay: -1.5s; } .f3 { animation-delay: -3s; } .f4 { animation-delay: -4.5s; } .f5 { animation-delay: -2.2s; } .f6 { animation-delay: -3.7s; }
  @keyframes bob { 0%, 100% { transform: translateY(0); } 50% { transform: translateY(-9px); } }
  .ln { transform-box: fill-box; transform-origin: left center; animation: type 9s steps(14, end) infinite; }
  .l2 { animation-delay: .6s; } .l3 { animation-delay: 1.2s; } .l4 { animation-delay: 1.8s; } .l5 { animation-delay: 2.4s; } .l6 { animation-delay: 3s; } .l7 { animation-delay: 3.6s; } .l8 { animation-delay: 4.2s; }
  @keyframes type { 0% { transform: scaleX(0); } 8% { transform: scaleX(1); } 88% { transform: scaleX(1); } 92%, 100% { transform: scaleX(0); } }
  .caret { animation: blink 1s steps(1) infinite; }
  @keyframes blink { 50% { opacity: 0; } }
  .wire { stroke-dasharray: 2 7; animation: flow 1.6s linear infinite; }
  @keyframes flow { to { stroke-dashoffset: -18; } }
  .pulse { animation: pulse 3.2s ease-in-out infinite; }
  @keyframes pulse { 0%, 100% { opacity: .55; } 50% { opacity: 1; } }
  .lamp { animation: lamp 5s ease-in-out infinite; }
  @keyframes lamp { 0%, 100% { opacity: .9; } 45% { opacity: .75; } 50% { opacity: .95; } }
  .steam path { stroke-dasharray: 40; animation: steam 3.4s ease-in-out infinite; }
  .steam path + path { animation-delay: -1.7s; }
  @keyframes steam { 0% { stroke-dashoffset: 40; opacity: 0; } 30% { opacity: .7; } 100% { stroke-dashoffset: -40; opacity: 0; } }
  .screenlight { animation: screen 4s ease-in-out infinite; }
  @keyframes screen { 0%, 100% { opacity: .5; } 50% { opacity: .75; } }
  @media (prefers-reduced-motion: reduce) { * { animation: none !important; } }
</style>
<defs>
  <linearGradient id="hood" x1="0" y1="0" x2="0" y2="1"><stop offset="0" stop-color="#2A2A72"/><stop offset="1" stop-color="#1B1B52"/></linearGradient>
  <linearGradient id="skin" x1="0" y1="0" x2="1" y2="1"><stop offset="0" stop-color="#7A4A2E"/><stop offset="1" stop-color="#5A3320"/></linearGradient>
  <linearGradient id="desk" x1="0" y1="0" x2="0" y2="1"><stop offset="0" stop-color="#2B2B70"/><stop offset="1" stop-color="#1A1A4C"/></linearGradient>
  <linearGradient id="win" x1="0" y1="0" x2="0" y2="1"><stop offset="0" stop-color="#20205E"/><stop offset="1" stop-color="#16164A"/></linearGradient>
  <radialGradient id="glowGold" cx=".5" cy=".5" r=".5"><stop offset="0" stop-color="#F7CB1E" stop-opacity=".55"/><stop offset="1" stop-color="#F7CB1E" stop-opacity="0"/></radialGradient>
  <radialGradient id="faceLight" cx=".5" cy="1" r=".8"><stop offset="0" stop-color="#F7CB1E" stop-opacity=".35"/><stop offset="1" stop-color="#F7CB1E" stop-opacity="0"/></radialGradient>
  <linearGradient id="cone" x1="0" y1="0" x2="0" y2="1"><stop offset="0" stop-color="#F7CB1E" stop-opacity=".45"/><stop offset="1" stop-color="#F7CB1E" stop-opacity="0"/></linearGradient>
  <filter id="soft" x="-50%" y="-50%" width="200%" height="200%"><feGaussianBlur stdDeviation="6"/></filter>
</defs>

<!-- circuit wires -->
<g fill="none" stroke="#F7CB1E" stroke-width="2" stroke-linecap="round" opacity=".7">
  <path class="wire" d="M270 120 H300 V78"/>
  <path class="wire" d="M354 53 H414"/>
  <path class="wire" d="M468 84 H500"/>
  <path class="wire" d="M560 92 V140 H588"/>
  <path class="wire" d="M562 177 H506"/>
  <path class="wire" d="M155 236 V262"/>
</g>

<!-- code editor window -->
<g class="float">
  <rect x="36" y="64" width="234" height="172" rx="14" fill="url(#win)" stroke="#F7CB1E" stroke-opacity=".35"/>
  <circle cx="56" cy="82" r="4.5" fill="#F7CB1E"/><circle cx="71" cy="82" r="4.5" fill="#9A9BE0"/><circle cx="86" cy="82" r="4.5" fill="#C9CAE8"/>
  <rect x="36" y="96" width="234" height="1" fill="#F7CB1E" opacity=".2"/>
  <g fill="#3C3C8E"><rect x="48" y="108" width="22" height="5" rx="2.5"/><rect x="48" y="122" width="16" height="5" rx="2.5"/><rect x="48" y="136" width="20" height="5" rx="2.5"/><rect x="48" y="150" width="14" height="5" rx="2.5"/><rect x="48" y="164" width="22" height="5" rx="2.5"/><rect x="48" y="178" width="18" height="5" rx="2.5"/><rect x="48" y="192" width="20" height="5" rx="2.5"/><rect x="48" y="206" width="16" height="5" rx="2.5"/></g>
  <rect x="80" y="104" width="1" height="116" fill="#F7CB1E" opacity=".15"/>
  <g class="ln l1"><rect x="90" y="108" width="40" height="5" rx="2.5" fill="#F7CB1E"/><rect x="134" y="108" width="54" height="5" rx="2.5" fill="#E8EAFB"/></g>
  <g class="ln l2"><rect x="102" y="122" width="30" height="5" rx="2.5" fill="#9A9BE0"/><rect x="136" y="122" width="70" height="5" rx="2.5" fill="#F7CB1E" opacity=".8"/></g>
  <g class="ln l3"><rect x="102" y="136" width="58" height="5" rx="2.5" fill="#E8EAFB"/><rect x="164" y="136" width="36" height="5" rx="2.5" fill="#61DAFB" opacity=".85"/></g>
  <g class="ln l4"><rect x="114" y="150" width="46" height="5" rx="2.5" fill="#F7CB1E"/><rect x="164" y="150" width="64" height="5" rx="2.5" fill="#9A9BE0"/></g>
  <g class="ln l5"><rect x="114" y="164" width="84" height="5" rx="2.5" fill="#E8EAFB"/></g>
  <g class="ln l6"><rect x="102" y="178" width="22" height="5" rx="2.5" fill="#9A9BE0"/><rect x="128" y="178" width="48" height="5" rx="2.5" fill="#3CC47C"/></g>
  <g class="ln l7"><rect x="90" y="192" width="70" height="5" rx="2.5" fill="#F7CB1E"/><rect x="164" y="192" width="30" height="5" rx="2.5" fill="#E8EAFB"/></g>
  <g class="ln l8"><rect x="90" y="206" width="20" height="5" rx="2.5" fill="#E8EAFB"/></g>
  <rect class="caret" x="114" y="204" width="3" height="10" fill="#F7CB1E"/>
</g>

<!-- floating tech tiles -->
<g class="float f2"><rect x="300" y="26" width="54" height="54" rx="13" fill="#1C1C55" stroke="#F7CB1E" stroke-opacity=".35"/><path d="M319 45l-8 8 8 8M335 45l8 8-8 8M330 42l-6 22" fill="none" stroke="#F7CB1E" stroke-width="3" stroke-linecap="round" stroke-linejoin="round"/></g>
<g class="float f3"><rect x="414" y="58" width="54" height="54" rx="13" fill="#1C1C55" stroke="#F7CB1E" stroke-opacity=".35"/><path d="M427 76l9 8-9 8" fill="none" stroke="#F7CB1E" stroke-width="3" stroke-linecap="round" stroke-linejoin="round"/><rect x="440" y="90" width="16" height="3.5" rx="1.75" fill="#F7CB1E"/></g>
<g class="float f4"><rect x="500" y="34" width="56" height="56" rx="13" fill="#1C1C55" stroke="#61DAFB" stroke-opacity=".4"/><g fill="none" stroke="#61DAFB" stroke-width="2.4"><ellipse cx="528" cy="62" rx="18" ry="7"/><ellipse cx="528" cy="62" rx="18" ry="7" transform="rotate(60 528 62)"/><ellipse cx="528" cy="62" rx="18" ry="7" transform="rotate(-60 528 62)"/></g><circle cx="528" cy="62" r="3.5" fill="#61DAFB"/></g>
<g class="float f5"><rect x="562" y="140" width="54" height="54" rx="13" fill="#1C1C55" stroke="#F7CB1E" stroke-opacity=".35"/><text x="589" y="176" text-anchor="middle" font-family="ui-monospace, Menlo, Consolas, monospace" font-weight="700" font-size="22" fill="#F7CB1E">JS</text></g>
<g class="float f6"><rect x="452" y="150" width="54" height="54" rx="13" fill="#1C1C55" stroke="#3CC47C" stroke-opacity=".45"/><path d="M479 161l14 8v16l-14 8-14-8v-16z" fill="none" stroke="#3CC47C" stroke-width="2.6" stroke-linejoin="round"/><text x="479" y="182" text-anchor="middle" font-family="ui-monospace, Menlo, Consolas, monospace" font-weight="700" font-size="11" fill="#3CC47C">JS</text></g>
<g class="float f3"><rect x="128" y="262" width="54" height="54" rx="13" fill="#1C1C55" stroke="#C9CAE8" stroke-opacity=".35"/><g fill="none" stroke="#E8EAFB" stroke-width="2.6" stroke-linecap="round"><circle cx="146" cy="278" r="4"/><circle cx="146" cy="302" r="4"/><circle cx="166" cy="286" r="4"/><path d="M146 282v16M166 290c0 8-20 4-20 8"/></g></g>

<!-- chair -->
<rect x="282" y="236" width="170" height="190" rx="34" fill="#12123A"/>
<rect x="294" y="248" width="146" height="160" rx="28" fill="#17174A"/>

<!-- lamp -->
<g>
  <path class="lamp" d="M556 252 L486 398 H612 Z" fill="url(#cone)"/>
  <path d="M600 398 L612 300 L572 236" fill="none" stroke="#2E2E7A" stroke-width="7" stroke-linecap="round" stroke-linejoin="round"/>
  <circle cx="612" cy="300" r="6.5" fill="#3A3A8E"/>
  <rect x="582" y="390" width="40" height="9" rx="4.5" fill="#2E2E7A"/>
  <path d="M540 222 L590 234 L578 268 L528 254 Z" fill="#2E2E7A"/>
  <path d="M528 254 L578 268" stroke="#F7CB1E" stroke-width="3" stroke-linecap="round"/>
  <ellipse class="lamp" cx="552" cy="264" rx="30" ry="12" fill="url(#glowGold)" transform="rotate(16 552 264)" filter="url(#soft)"/>
</g>

<!-- developer -->
<g transform="translate(0 -26)">
  <!-- hood behind neck -->
  <path d="M318 262 C 316 236, 404 236, 402 262 L 396 286 H 324 Z" fill="#21216A"/>
  <!-- torso -->
  <path d="M262 452 C 260 340, 282 300, 320 284 C 340 276, 380 276, 400 284 C 438 300, 460 340, 458 452 Z" fill="url(#hood)"/>
  <!-- hood rim and strings -->
  <path d="M326 284 C 336 302, 384 302, 394 284" fill="none" stroke="#14144A" stroke-width="6" stroke-linecap="round"/>
  <path d="M344 298 v34 M376 298 v34" stroke="#F7CB1E" stroke-width="3.5" stroke-linecap="round"/>
  <circle cx="344" cy="334" r="3.2" fill="#F7CB1E"/><circle cx="376" cy="334" r="3.2" fill="#F7CB1E"/>
  <path d="M384 348l-6 5 6 5M398 348l6 5-6 5M394 345l-4 16" fill="none" stroke="#F7CB1E" stroke-width="2.4" stroke-linecap="round" stroke-linejoin="round"/>
  <!-- neck -->
  <path d="M344 252 h32 v30 c -10 8, -22 8, -32 0 z" fill="#5A3320"/>
  <!-- ears -->
  <ellipse cx="315" cy="214" rx="9" ry="13" fill="#6A3D25"/><ellipse cx="405" cy="214" rx="9" ry="13" fill="#6A3D25"/>
  <!-- head -->
  <path d="M316 200 C 316 166, 336 150, 360 150 C 384 150, 404 166, 404 200 C 404 234, 388 262, 360 262 C 332 262, 316 234, 316 200 Z" fill="url(#skin)"/>
  <!-- screen light on the face -->
  <path class="screenlight" d="M316 200 C 316 166, 336 150, 360 150 C 384 150, 404 166, 404 200 C 404 234, 388 262, 360 262 C 332 262, 316 234, 316 200 Z" fill="url(#faceLight)"/>
  <!-- hair: short afro -->
  <path d="M310 196 C 300 160, 318 128, 350 124 C 372 116, 402 126, 410 152 C 418 170, 414 188, 408 198 C 404 180, 396 170, 384 166 C 366 172, 340 172, 326 168 C 318 176, 314 186, 310 196 Z" fill="#17110F"/>
  <g fill="#231915"><circle cx="330" cy="140" r="4"/><circle cx="348" cy="132" r="4"/><circle cx="368" cy="128" r="4"/><circle cx="388" cy="134" r="4"/><circle cx="402" cy="150" r="4"/><circle cx="318" cy="160" r="4"/><circle cx="340" cy="150" r="3.5"/><circle cx="360" cy="144" r="3.5"/><circle cx="380" cy="148" r="3.5"/><circle cx="398" cy="166" r="3.5"/></g>
  <!-- jaw shading -->
  <path d="M320 222 C 326 250, 344 262, 360 262 C 376 262, 394 250, 400 222 C 394 244, 378 254, 360 254 C 342 254, 326 244, 320 222 Z" fill="#3E2214" opacity=".35"/>
  <!-- cheeks catch the screen light -->
  <ellipse cx="336" cy="228" rx="8" ry="5" fill="#9A5C38" opacity=".45"/><ellipse cx="384" cy="228" rx="8" ry="5" fill="#9A5C38" opacity=".45"/>
  <!-- brows -->
  <path d="M332 192 q 12 -6 22 -1 M366 191 q 10 -5 22 1" fill="none" stroke="#17110F" stroke-width="4" stroke-linecap="round"/>
  <!-- glasses -->
  <g fill="none" stroke="#0E0E24" stroke-width="4"><rect x="327" y="198" width="30" height="22" rx="7"/><rect x="363" y="198" width="30" height="22" rx="7"/><path d="M357 207 h6 M327 205 l-10 -3 M393 205 l10 -3"/></g>
  <path class="pulse" d="M349 202 l4 -3 M385 202 l4 -3" stroke="#E8EAFB" stroke-width="2.2" stroke-linecap="round"/>
  <!-- eyes looking down at the screen -->
  <path d="M336 213 q 6 4 12 0 M372 213 q 6 4 12 0" fill="none" stroke="#17110F" stroke-width="3" stroke-linecap="round"/>
  <!-- nose and smile -->
  <path d="M358 218 c -3 8, -5 12, 0 14 c 3 1, 6 0, 8 -1" fill="none" stroke="#4A2A18" stroke-width="2.6" stroke-linecap="round"/>
  <path d="M345 239 q 15 11 30 0" fill="#F4F0EA" stroke="#2A1810" stroke-width="2.6" stroke-linecap="round" stroke-linejoin="round"/>
  <!-- arms -->
  <path d="M280 330 C 264 366, 258 400, 268 428 L 302 428 C 296 404, 298 374, 306 346 Z" fill="#26267A"/>
  <path d="M440 330 C 456 366, 462 400, 452 428 L 418 428 C 424 404, 422 374, 414 346 Z" fill="#26267A"/>
</g>

<!-- desk -->
<rect x="14" y="398" width="612" height="22" rx="8" fill="url(#desk)"/>
<rect x="14" y="398" width="612" height="3" rx="1.5" fill="#F7CB1E" opacity=".25"/>
<path d="M44 420 H596 L586 446 H54 Z" fill="#121238" opacity=".85"/>

<!-- hands -->
<ellipse cx="290" cy="398" rx="20" ry="9" fill="#6A3D25"/>
<ellipse cx="432" cy="398" rx="20" ry="9" fill="#6A3D25"/>

<!-- laptop (we see the back of the lid) -->
<g>
  <ellipse class="screenlight" cx="361" cy="316" rx="96" ry="30" fill="url(#glowGold)" filter="url(#soft)"/>
  <path d="M284 326 Q 284 318 292 318 H 430 Q 438 318 438 326 L 444 392 H 278 Z" fill="#1E1E5A"/>
  <path d="M284 326 Q 284 318 292 318 H 430 Q 438 318 438 326" fill="none" stroke="#F7CB1E" stroke-opacity=".4" stroke-width="2"/>
  <rect x="262" y="390" width="198" height="10" rx="4" fill="#2A2A74"/>
  <g class="pulse"><path d="M348 344l-11 11 11 11M374 344l11 11-11 11M366 340l-10 30" fill="none" stroke="#F7CB1E" stroke-width="4" stroke-linecap="round" stroke-linejoin="round"/></g>
</g>

<!-- books -->
<g font-family="ui-monospace, Menlo, Consolas, monospace" font-weight="700" font-size="10" text-anchor="middle">
  <rect x="478" y="372" width="132" height="26" rx="4" fill="#1C1C55"/><rect x="478" y="372" width="132" height="3" fill="#F7CB1E" opacity=".6"/><text x="544" y="390" fill="#E8EAFB">DATABASE DESIGN</text>
  <rect x="486" y="348" width="118" height="24" rx="4" fill="#F7CB1E"/><text x="545" y="364" fill="#14143A">NODE.JS</text>
  <rect x="482" y="326" width="122" height="22" rx="4" fill="#2C2C78"/><text x="543" y="341" fill="#F7CB1E">REACT</text>
</g>

<!-- mug with steam -->
<g>
  <g class="steam" fill="none" stroke="#C9CAE8" stroke-width="2.4" stroke-linecap="round"><path d="M150 350 c -6 -10, 6 -16, 0 -28"/><path d="M164 350 c -6 -10, 6 -16, 0 -28"/></g>
  <path d="M136 356 h44 v34 a8 8 0 0 1 -8 8 h-28 a8 8 0 0 1 -8 -8 z" fill="#1C1C55"/>
  <path d="M180 364 h6 a9 9 0 0 1 0 18 h-6" fill="none" stroke="#1C1C55" stroke-width="5"/>
  <text x="158" y="384" text-anchor="middle" font-family="ui-monospace, Menlo, Consolas, monospace" font-weight="700" font-size="15" fill="#F7CB1E">{ }</text>
</g>

<!-- plant -->
<g transform="translate(-18 0)">
  <path d="M70 318 C 50 300, 48 282, 56 270 C 74 284, 80 300, 76 318 Z" fill="#3C3C8E"/>
  <path d="M84 316 C 84 290, 96 274, 112 266 C 116 290, 104 306, 88 318 Z" fill="#4A4AA6"/>
  <path d="M76 322 C 60 314, 40 316, 30 324 C 46 334, 64 332, 78 326 Z" fill="#34348A"/>
  <path d="M90 322 C 104 312, 122 312, 132 320 C 118 332, 102 330, 90 326 Z" fill="#3C3C8E"/>
  <path d="M60 330 h48 l-6 66 a6 6 0 0 1 -6 4 h-24 a6 6 0 0 1 -6 -4 z" fill="#20205E"/>
  <rect x="58" y="326" width="52" height="8" rx="3" fill="#2A2A74"/>
</g>
</svg>
